<svg xmlns="http://www.w3.org/2000/svg" viewBox="0 0 1440 900">
  <defs>
    <!-- Sky gradient -->
    <linearGradient id="sky" x1="0" y1="0" x2="0" y2="1">
      <stop offset="0%" stop-color="#000d0b"/>
      <stop offset="50%" stop-color="#001a16"/>
      <stop offset="100%" stop-color="#003028"/>
    </linearGradient>
    <!-- Road gradient -->
    <linearGradient id="road" x1="0" y1="0" x2="0" y2="1">
      <stop offset="0%" stop-color="#0d1a15"/>
      <stop offset="100%" stop-color="#060e0b"/>
    </linearGradient>
    <!-- Robot body front face -->
    <linearGradient id="bodyFront" x1="0" y1="0" x2="0" y2="1">
      <stop offset="0%" stop-color="#2e4a52"/>
      <stop offset="100%" stop-color="#1a2e34"/>
    </linearGradient>
    <!-- Robot body top -->
    <linearGradient id="bodyTop" x1="0" y1="0" x2="0" y2="1">
      <stop offset="0%" stop-color="#3a5a64"/>
      <stop offset="100%" stop-color="#2a454e"/>
    </linearGradient>
    <!-- Robot body right side -->
    <linearGradient id="bodySide" x1="0" y1="0" x2="1" y2="0">
      <stop offset="0%" stop-color="#1a2e34"/>
      <stop offset="100%" stop-color="#102028"/>
    </linearGradient>
    <!-- Wheel gradient -->
    <radialGradient id="wheel" cx="40%" cy="35%" r="60%">
      <stop offset="0%" stop-color="#546e7a"/>
      <stop offset="100%" stop-color="#1c2e34"/>
    </radialGradient>
    <!-- Wheel hub -->
    <radialGradient id="wheelHub" cx="50%" cy="50%" r="50%">
      <stop offset="0%" stop-color="#78909c"/>
      <stop offset="100%" stop-color="#37474f"/>
    </radialGradient>
    <!-- Cyan LED glow -->
    <filter id="cyanGlow" x="-50%" y="-50%" width="200%" height="200%">
      <feGaussianBlur stdDeviation="6" result="blur"/>
      <feMerge><feMergeNode in="blur"/><feMergeNode in="SourceGraphic"/></feMerge>
    </filter>
    <filter id="softGlow" x="-100%" y="-100%" width="300%" height="300%">
      <feGaussianBlur stdDeviation="14" result="blur"/>
      <feMerge><feMergeNode in="blur"/><feMergeNode in="SourceGraphic"/></feMerge>
    </filter>
    <filter id="lightGlow" x="-200%" y="-200%" width="500%" height="500%">
      <feGaussianBlur stdDeviation="22" result="blur"/>
      <feMerge><feMergeNode in="blur"/><feMergeNode in="SourceGraphic"/></feMerge>
    </filter>
    <!-- Horizon radial glow -->
    <radialGradient id="horizonGlow" cx="50%" cy="100%" r="70%">
      <stop offset="0%" stop-color="#00bfa5" stop-opacity="0.25"/>
      <stop offset="100%" stop-color="#000d0b" stop-opacity="0"/>
    </radialGradient>
    <!-- Road ambient from robot headlights -->
    <radialGradient id="headlightGlow" cx="50%" cy="0%" r="80%">
      <stop offset="0%" stop-color="#00e5ff" stop-opacity="0.18"/>
      <stop offset="100%" stop-color="#00e5ff" stop-opacity="0"/>
    </radialGradient>
    <!-- Compartment gradient -->
    <linearGradient id="compartment" x1="0" y1="0" x2="0" y2="1">
      <stop offset="0%" stop-color="#0d2028"/>
      <stop offset="100%" stop-color="#091820"/>
    </linearGradient>
  </defs>

  <!-- ═══════════════════════════════════════════════════ -->
  <!--  SKY + ENVIRONMENT                                  -->
  <!-- ═══════════════════════════════════════════════════ -->
  <rect width="1440" height="900" fill="url(#sky)"/>

  <!-- Stars scattered -->
  <circle cx="80"  cy="60"  r="1.2" fill="white" opacity="0.7"/>
  <circle cx="180" cy="35"  r="0.8" fill="white" opacity="0.5"/>
  <circle cx="310" cy="90"  r="1.5" fill="white" opacity="0.6"/>
  <circle cx="460" cy="45"  r="0.8" fill="white" opacity="0.4"/>
  <circle cx="620" cy="70"  r="1.2" fill="white" opacity="0.7"/>
  <circle cx="780" cy="30"  r="0.8" fill="white" opacity="0.5"/>
  <circle cx="900" cy="80"  r="1.5" fill="white" opacity="0.6"/>
  <circle cx="1050" cy="50" r="0.8" fill="white" opacity="0.4"/>
  <circle cx="1180" cy="90" r="1.2" fill="white" opacity="0.6"/>
  <circle cx="1340" cy="40" r="1.0" fill="white" opacity="0.5"/>
  <circle cx="130" cy="160" r="0.8" fill="white" opacity="0.3"/>
  <circle cx="550" cy="180" r="1.0" fill="white" opacity="0.3"/>
  <circle cx="1100" cy="150" r="0.8" fill="white" opacity="0.3"/>
  <circle cx="1380" cy="200" r="1.2" fill="white" opacity="0.4"/>
  <circle cx="40"  cy="280" r="0.8" fill="white" opacity="0.2"/>
  <circle cx="1420" cy="320" r="0.8" fill="white" opacity="0.2"/>

  <!-- Horizon ambient glow -->
  <rect x="0" y="350" width="1440" height="550" fill="url(#horizonGlow)"/>

  <!-- Mountain/city silhouette on horizon -->
  <path d="M0,430 L80,360 L140,395 L220,330 L310,375 L400,315 L480,355 L570,300
           L650,340 L720,310 L800,350 L880,305 L960,345 L1060,290 L1150,340
           L1240,300 L1320,360 L1440,320 L1440,450 L0,450 Z"
        fill="#040f0d" opacity="0.9"/>

  <!-- ═══════════════════════════════════════════════════ -->
  <!--  ROAD                                               -->
  <!-- ═══════════════════════════════════════════════════ -->
  <!-- Road surface -->
  <path d="M160,900 L560,450 L880,450 L1280,900 Z" fill="url(#road)"/>

  <!-- Road lane markings -->
  <path d="M720,450 L720,900" stroke="#1a3020" stroke-width="3" stroke-dasharray="30,22" opacity="0.7"/>
  <path d="M560,450 L160,900" stroke="#1a3020" stroke-width="2" opacity="0.4"/>
  <path d="M880,450 L1280,900" stroke="#1a3020" stroke-width="2" opacity="0.4"/>

  <!-- Headlight cone from robot onto road -->
  <path d="M520,640 L340,900 L700,900 Z" fill="url(#headlightGlow)" opacity="0.6"/>

  <!-- ═══════════════════════════════════════════════════ -->
  <!--  ROBOT PACER — 4-WHEELED, 4FT × 4FT × 4FT         -->
  <!--  3/4 view (front-left perspective)                  -->
  <!-- ═══════════════════════════════════════════════════ -->

  <!-- ── Rear axle / suspension bars ── -->
  <rect x="360" y="695" width="215" height="10" rx="5" fill="#1a2e34" opacity="0.9"/>

  <!-- ── REAR WHEELS (visible behind body) ── -->
  <!-- Rear-right wheel -->
  <ellipse cx="565" cy="724" rx="50" ry="28" fill="url(#wheel)" stroke="#455a64" stroke-width="2.5"/>
  <ellipse cx="565" cy="724" rx="34" ry="19" fill="#1c2e34" stroke="#546e7a" stroke-width="1.5"/>
  <circle  cx="565" cy="724" r="10"  fill="url(#wheelHub)"/>
  <circle  cx="565" cy="724" r="4"   fill="#263238"/>
  <!-- Tread pattern -->
  <ellipse cx="565" cy="724" rx="48" ry="26" fill="none" stroke="#37474f" stroke-width="4" stroke-dasharray="10,7"/>

  <!-- Rear-left wheel (partially behind body, left side) -->
  <ellipse cx="368" cy="724" rx="50" ry="28" fill="url(#wheel)" stroke="#455a64" stroke-width="2.5"/>
  <ellipse cx="368" cy="724" rx="34" ry="19" fill="#1c2e34" stroke="#546e7a" stroke-width="1.5"/>
  <circle  cx="368" cy="724" r="10"  fill="url(#wheelHub)"/>
  <circle  cx="368" cy="724" r="4"   fill="#263238"/>
  <ellipse cx="368" cy="724" rx="48" ry="26" fill="none" stroke="#37474f" stroke-width="4" stroke-dasharray="10,7"/>

  <!-- ── CHASSIS UNDERCARRIAGE ── -->
  <path d="M340,685 L370,660 L610,660 L580,685 Z" fill="#0e1e24" stroke="#263238" stroke-width="1.5"/>
  <rect x="340" y="685" width="240" height="22" rx="5" fill="#0e1e24" stroke="#263238" stroke-width="1.5"/>

  <!-- ── MAIN BODY — FRONT FACE ── -->
  <rect x="340" y="480" width="240" height="210" rx="6" fill="url(#bodyFront)" stroke="#4a7080" stroke-width="2.5"/>

  <!-- ── MAIN BODY — TOP FACE (3D) ── -->
  <path d="M340,480 L380,440 L650,440 L580,480 Z" fill="url(#bodyTop)" stroke="#4a7080" stroke-width="2"/>

  <!-- ── MAIN BODY — RIGHT SIDE FACE ── -->
  <path d="M580,480 L650,440 L650,650 L580,690 Z" fill="url(#bodySide)" stroke="#3a5a64" stroke-width="2"/>

  <!-- ── RIGHT SIDE FACE DETAILS (storage visible from side) ── -->
  <!-- Side water bottle rack outline -->
  <path d="M592,488 L642,455 L642,550 L592,575 Z" fill="#0d2028" stroke="#2a4a54" stroke-width="1.5" opacity="0.9"/>
  <text x="617" y="510" font-family="sans-serif" font-size="9" fill="#4caf50" text-anchor="middle" transform="rotate(-30,617,510)">H₂O</text>
  <rect x="595" y="525" width="8" height="22" rx="2" fill="#4fc3f7" opacity="0.5" transform="skewX(-20)"/>
  <rect x="608" y="525" width="8" height="22" rx="2" fill="#4fc3f7" opacity="0.4" transform="skewX(-20)"/>

  <!-- ── LED STRIP — top edge of front face ── -->
  <rect x="340" y="480" width="240" height="6" rx="2" fill="#00e5ff" opacity="0.95" filter="url(#cyanGlow)"/>
  <!-- Right side LED top edge -->
  <path d="M580,480 L650,440 L650,446 L580,486 Z" fill="#00e5ff" opacity="0.8" filter="url(#cyanGlow)"/>

  <!-- ── LED STRIP — bottom of front face ── -->
  <rect x="340" y="684" width="240" height="5" rx="2" fill="#00bfa5" opacity="0.8" filter="url(#cyanGlow)"/>

  <!-- ── LED STRIP — vertical left edge ── -->
  <rect x="340" y="480" width="5" height="204" rx="2" fill="#00e5ff" opacity="0.7" filter="url(#cyanGlow)"/>

  <!-- ── FRONT FACE PANELS ── -->
  <!-- Upper-left: WATER compartment -->
  <rect x="350" y="492" width="108" height="78" rx="5" fill="url(#compartment)" stroke="#2a4a58" stroke-width="1.5"/>
  <text x="404" y="508" font-family="sans-serif" font-size="8.5" font-weight="bold" fill="#29b6f6" text-anchor="middle" letter-spacing="1">HYDRATION</text>
  <!-- Water bottles -->
  <rect x="360" y="514" width="14" height="48" rx="4" fill="#4fc3f7" opacity="0.65"/>
  <rect x="360" y="511" width="14" height="6"  rx="2" fill="#81d4fa" opacity="0.7"/>
  <rect x="378" y="514" width="14" height="48" rx="4" fill="#29b6f6" opacity="0.6"/>
  <rect x="378" y="511" width="14" height="6"  rx="2" fill="#4fc3f7" opacity="0.65"/>
  <rect x="396" y="514" width="14" height="48" rx="4" fill="#4fc3f7" opacity="0.55"/>
  <rect x="396" y="511" width="14" height="6"  rx="2" fill="#81d4fa" opacity="0.6"/>
  <rect x="414" y="514" width="14" height="48" rx="4" fill="#29b6f6" opacity="0.5"/>
  <rect x="414" y="511" width="14" height="6"  rx="2" fill="#4fc3f7" opacity="0.55"/>
  <rect x="432" y="514" width="14" height="48" rx="4" fill="#4fc3f7" opacity="0.45"/>
  <rect x="432" y="511" width="14" height="6"  rx="2" fill="#81d4fa" opacity="0.5"/>
  <!-- Water level indicator bar -->
  <rect x="352" y="567" width="104" height="3" rx="1" fill="#0d3040"/>
  <rect x="352" y="567" width="78"  height="3" rx="1" fill="#00e5ff" opacity="0.8" filter="url(#cyanGlow)"/>

  <!-- Upper-right: JACKET/GEAR compartment -->
  <rect x="462" y="492" width="110" height="78" rx="5" fill="url(#compartment)" stroke="#2a4a58" stroke-width="1.5"/>
  <text x="517" y="508" font-family="sans-serif" font-size="8.5" font-weight="bold" fill="#80cbc4" text-anchor="middle" letter-spacing="1">JACKET &amp; GEAR</text>
  <!-- Jacket icon -->
  <path d="M480,528 L476,520 L492,516 L500,524 L508,516 L524,520 L520,528 L514,525 L514,563 L486,563 L486,525 Z"
        fill="#ff7043" opacity="0.65" stroke="#ff8a65" stroke-width="1"/>
  <!-- Collar -->
  <path d="M492,516 L500,524 L508,516" fill="none" stroke="#ffab91" stroke-width="1.5"/>
  <!-- Gear items to the right of jacket -->
  <rect x="528" y="520" width="37" height="14" rx="3" fill="#ff9800" opacity="0.6"/>
  <text x="546" y="530" font-family="sans-serif" font-size="7" fill="#fff8e1" text-anchor="middle">GEL ×6</text>
  <rect x="528" y="540" width="37" height="14" rx="3" fill="#e53935" opacity="0.6"/>
  <text x="546" y="550" font-family="sans-serif" font-size="7" fill="#fff" text-anchor="middle">AID KIT</text>
  <rect x="528" y="559" width="37" height="14" rx="3" fill="#546e7a" opacity="0.6"/>
  <text x="546" y="569" font-family="sans-serif" font-size="7" fill="#cfd8dc" text-anchor="middle">SPARE</text>

  <!-- Lower panel: STATUS DISPLAY -->
  <rect x="350" y="578" width="222" height="70" rx="5" fill="#030f14" stroke="#1a4a58" stroke-width="1.5"/>
  <!-- Screen scanlines effect -->
  <rect x="352" y="580" width="218" height="1" fill="#00bfa5" opacity="0.08"/>
  <rect x="352" y="584" width="218" height="1" fill="#00bfa5" opacity="0.08"/>
  <rect x="352" y="588" width="218" height="1" fill="#00bfa5" opacity="0.08"/>
  <rect x="352" y="592" width="218" height="1" fill="#00bfa5" opacity="0.08"/>
  <rect x="352" y="596" width="218" height="1" fill="#00bfa5" opacity="0.08"/>
  <rect x="352" y="600" width="218" height="1" fill="#00bfa5" opacity="0.08"/>
  <rect x="352" y="604" width="218" height="1" fill="#00bfa5" opacity="0.08"/>
  <rect x="352" y="608" width="218" height="1" fill="#00bfa5" opacity="0.08"/>
  <rect x="352" y="612" width="218" height="1" fill="#00bfa5" opacity="0.08"/>
  <rect x="352" y="616" width="218" height="1" fill="#00bfa5" opacity="0.08"/>
  <rect x="352" y="620" width="218" height="1" fill="#00bfa5" opacity="0.08"/>
  <rect x="352" y="624" width="218" height="1" fill="#00bfa5" opacity="0.08"/>
  <rect x="352" y="628" width="218" height="1" fill="#00bfa5" opacity="0.08"/>
  <rect x="352" y="632" width="218" height="1" fill="#00bfa5" opacity="0.08"/>
  <rect x="352" y="636" width="218" height="1" fill="#00bfa5" opacity="0.08"/>
  <rect x="352" y="640" width="218" height="1" fill="#00bfa5" opacity="0.08"/>
  <rect x="352" y="644" width="218" height="1" fill="#00bfa5" opacity="0.08"/>
  <!-- Status text on display -->
  <text x="362" y="594" font-family="'Courier New', monospace" font-size="9" fill="#00e5ff" opacity="0.9">PACE: 5:24 /km</text>
  <text x="362" y="607" font-family="'Courier New', monospace" font-size="9" fill="#00bfa5" opacity="0.9">DIST: 12.4 km</text>
  <text x="362" y="620" font-family="'Courier New', monospace" font-size="9" fill="#4caf50" opacity="0.9">HR:   164 bpm ♥</text>
  <text x="362" y="633" font-family="'Courier New', monospace" font-size="9" fill="#ff9800" opacity="0.9">BATTERY: 87%  ██████░░</text>
  <text x="362" y="645" font-family="'Courier New', monospace" font-size="9" fill="#80cbc4" opacity="0.85">GPS: LOCKED  SAT:12</text>
  <!-- MLE branding on display -->
  <text x="552" y="634" font-family="sans-serif" font-size="13" font-weight="bold" fill="#00bfa5" opacity="0.5" text-anchor="end">MLE</text>

  <!-- ── HEADLIGHTS (front face, two rectangular LEDs) ── -->
  <rect x="350" y="654" width="55" height="22" rx="4" fill="#00e5ff" opacity="0.95" filter="url(#softGlow)"/>
  <rect x="352" y="656" width="51" height="18" rx="3" fill="white" opacity="0.75"/>
  <rect x="520" y="654" width="55" height="22" rx="4" fill="#00e5ff" opacity="0.95" filter="url(#softGlow)"/>
  <rect x="522" y="656" width="51" height="18" rx="3" fill="white" opacity="0.75"/>
  <!-- Headlight beam cast onto road -->
  <path d="M363,676 L220,820 L430,820 Z" fill="white" opacity="0.04"/>
  <path d="M545,676 L400,820 L620,820 Z" fill="white" opacity="0.04"/>

  <!-- ── SENSOR ARRAY — TOP OF ROBOT ── -->
  <!-- Sensor platform plate (on top face) -->
  <path d="M380,440 L650,440 L640,430 L390,430 Z" fill="#1a3038" stroke="#3a6070" stroke-width="1.5"/>

  <!-- LiDAR unit — center top (rotating dome) -->
  <ellipse cx="510" cy="425" rx="32" ry="16" fill="#1a3038" stroke="#00bfa5" stroke-width="2.5" filter="url(#cyanGlow)"/>
  <ellipse cx="510" cy="422" rx="26" ry="13" fill="#0d2028" stroke="#00e5ff" stroke-width="1.5"/>
  <ellipse cx="510" cy="419" rx="18" ry="9"  fill="#031018" stroke="#00bfa5" stroke-width="1"/>
  <circle  cx="510" cy="417" r="7"  fill="#00bfa5" opacity="0.8" filter="url(#cyanGlow)"/>
  <circle  cx="510" cy="417" r="3.5" fill="#e0f7fa"/>
  <!-- LiDAR scan line -->
  <line x1="510" y1="417" x2="534" y2="410" stroke="#00e5ff" stroke-width="2" opacity="0.9" filter="url(#cyanGlow)"/>

  <!-- LiDAR scan rings (emanating) -->
  <ellipse cx="510" cy="470" rx="100" ry="30" fill="none" stroke="#00e5ff" stroke-width="1" opacity="0.12" stroke-dasharray="6,10"/>
  <ellipse cx="510" cy="490" rx="170" ry="50" fill="none" stroke="#00e5ff" stroke-width="0.8" opacity="0.07" stroke-dasharray="6,10"/>
  <ellipse cx="510" cy="510" rx="250" ry="75" fill="none" stroke="#00bfa5" stroke-width="0.6" opacity="0.05" stroke-dasharray="6,10"/>

  <!-- Stereo Camera — left -->
  <rect x="410" y="416" width="30" height="20" rx="4" fill="#263238" stroke="#546e7a" stroke-width="1.5"/>
  <circle cx="425" cy="426" r="8"  fill="#0d1a20" stroke="#00bfa5" stroke-width="1.5" filter="url(#cyanGlow)"/>
  <circle cx="425" cy="426" r="5"  fill="#0a1520"/>
  <circle cx="425" cy="426" r="2.5" fill="#1565c0"/>
  <circle cx="427" cy="424" r="1"  fill="white" opacity="0.6"/>

  <!-- Stereo Camera — right -->
  <rect x="590" y="416" width="30" height="20" rx="4" fill="#263238" stroke="#546e7a" stroke-width="1.5"/>
  <circle cx="605" cy="426" r="8"  fill="#0d1a20" stroke="#00bfa5" stroke-width="1.5" filter="url(#cyanGlow)"/>
  <circle cx="605" cy="426" r="5"  fill="#0a1520"/>
  <circle cx="605" cy="426" r="2.5" fill="#1565c0"/>
  <circle cx="607" cy="424" r="1"  fill="white" opacity="0.6"/>

  <!-- GPS/Comm antenna array -->
  <rect x="460" y="404" width="5"  height="28" fill="#546e7a"/>
  <circle cx="462" cy="402" r="6" fill="#00bfa5" filter="url(#softGlow)" opacity="0.9"/>
  <rect x="549" y="404" width="5"  height="28" fill="#546e7a"/>
  <circle cx="551" cy="402" r="6" fill="#00bfa5" filter="url(#softGlow)" opacity="0.9"/>

  <!-- Ultrasonic sensors — small bumps on front face corners -->
  <circle cx="358" cy="500" r="9" fill="#1a3038" stroke="#3a6070" stroke-width="1.5"/>
  <circle cx="358" cy="500" r="5" fill="#0a2030" stroke="#00bfa5" stroke-width="1" filter="url(#cyanGlow)"/>
  <circle cx="575" cy="500" r="9" fill="#1a3038" stroke="#3a6070" stroke-width="1.5"/>
  <circle cx="575" cy="500" r="5" fill="#0a2030" stroke="#00bfa5" stroke-width="1" filter="url(#cyanGlow)"/>

  <!-- ── FRONT WHEELS ── -->
  <!-- Front-left wheel -->
  <ellipse cx="380" cy="762" rx="54" ry="30" fill="url(#wheel)" stroke="#455a64" stroke-width="2.5"/>
  <ellipse cx="380" cy="762" rx="37" ry="21" fill="#1c2e34" stroke="#546e7a" stroke-width="2"/>
  <circle  cx="380" cy="762" r="12" fill="url(#wheelHub)"/>
  <circle  cx="380" cy="762" r="5"  fill="#263238"/>
  <!-- Lug nuts -->
  <circle cx="380" cy="747" r="3" fill="#546e7a"/>
  <circle cx="380" cy="777" r="3" fill="#546e7a"/>
  <circle cx="365" cy="755" r="3" fill="#546e7a"/>
  <circle cx="395" cy="755" r="3" fill="#546e7a"/>
  <circle cx="365" cy="769" r="3" fill="#546e7a"/>
  <circle cx="395" cy="769" r="3" fill="#546e7a"/>
  <!-- Tread -->
  <ellipse cx="380" cy="762" rx="52" ry="28" fill="none" stroke="#37474f" stroke-width="5" stroke-dasharray="12,8"/>

  <!-- Front-right wheel -->
  <ellipse cx="558" cy="762" rx="54" ry="30" fill="url(#wheel)" stroke="#455a64" stroke-width="2.5"/>
  <ellipse cx="558" cy="762" rx="37" ry="21" fill="#1c2e34" stroke="#546e7a" stroke-width="2"/>
  <circle  cx="558" cy="762" r="12" fill="url(#wheelHub)"/>
  <circle  cx="558" cy="762" r="5"  fill="#263238"/>
  <circle cx="558" cy="747" r="3" fill="#546e7a"/>
  <circle cx="558" cy="777" r="3" fill="#546e7a"/>
  <circle cx="543" cy="755" r="3" fill="#546e7a"/>
  <circle cx="573" cy="755" r="3" fill="#546e7a"/>
  <circle cx="543" cy="769" r="3" fill="#546e7a"/>
  <circle cx="573" cy="769" r="3" fill="#546e7a"/>
  <ellipse cx="558" cy="762" rx="52" ry="28" fill="none" stroke="#37474f" stroke-width="5" stroke-dasharray="12,8"/>

  <!-- Ground shadow under robot -->
  <ellipse cx="470" cy="800" rx="180" ry="25" fill="black" opacity="0.5"/>

  <!-- ═══════════════════════════════════════════════════ -->
  <!--  RUNNER SILHOUETTE — ahead and right of robot       -->
  <!-- ═══════════════════════════════════════════════════ -->
  <g transform="translate(830,350) scale(0.85)">
    <!-- Dynamic mid-stride running pose, facing right -->
    <!-- Head -->
    <circle cx="60" cy="14"  r="18" fill="#0a1410"/>
    <!-- Cap brim -->
    <path d="M44,8 L80,8 L78,14 L44,14 Z" fill="#0a1410"/>
    <!-- Torso - slight lean forward -->
    <path d="M60,32 L52,115 L68,115 Z" fill="#0a1410"/>
    <!-- Right arm — pumping back -->
    <path d="M60,45 L24,90 L28,96 L64,50 Z" fill="#0a1410"/>
    <!-- Left arm — driving forward -->
    <path d="M60,45 L100,72 L96,78 L56,52 Z" fill="#0a1410"/>
    <!-- Right leg — stride forward -->
    <path d="M58,110 L30,180 L38,183 L65,114 Z" fill="#0a1410"/>
    <!-- Right lower leg — extended forward, heel strike -->
    <path d="M33,178 L15,228 L23,231 L40,181 Z" fill="#0a1410"/>
    <!-- Right foot / shoe -->
    <path d="M12,228 Q0,234 4,238 Q16,242 30,236 L23,228 Z" fill="#0a1410"/>
    <!-- Left leg — pushing off behind -->
    <path d="M62,110 L88,175 L80,178 L55,114 Z" fill="#0a1410"/>
    <!-- Left lower leg — angled back -->
    <path d="M85,172 L110,212 L102,216 L78,176 Z" fill="#0a1410"/>
    <!-- Left shoe -->
    <path d="M100,210 Q118,208 120,214 Q118,220 104,222 L96,214 Z" fill="#0a1410"/>
    <!-- Running vest highlight (subtle) -->
    <path d="M60,34 L54,80 L60,82 L66,80 L60,34 Z" fill="#162820" opacity="0.7"/>
  </g>

  <!-- Tracking dotted line from robot to runner (sensor lock) -->
  <line x1="578" y1="500" x2="840" y2="460" stroke="#00e5ff" stroke-width="1.5" stroke-dasharray="6,5" opacity="0.35" filter="url(#cyanGlow)"/>
  <!-- Distance label -->
  <rect x="680" y="462" width="60" height="18" rx="4" fill="#031018" opacity="0.8"/>
  <text x="710" y="474" font-family="'Courier New',monospace" font-size="8.5" fill="#00e5ff" text-anchor="middle" opacity="0.8">2.4 m ▶</text>

  <!-- ═══════════════════════════════════════════════════ -->
  <!--  OVERLAY + BRANDING                                 -->
  <!-- ═══════════════════════════════════════════════════ -->
  <!-- Subtle right-side vignette so app UI on right stays readable -->
  <linearGradient id="rightVig" x1="0" y1="0" x2="1" y2="0">
    <stop offset="60%" stop-color="#000d0b" stop-opacity="0"/>
    <stop offset="100%" stop-color="#000d0b" stop-opacity="0.55"/>
  </linearGradient>
  <rect width="1440" height="900" fill="url(#rightVig)"/>

  <!-- Left-side vignette -->
  <linearGradient id="leftVig" x1="0" y1="0" x2="1" y2="0">
    <stop offset="0%"  stop-color="#000d0b" stop-opacity="0.55"/>
    <stop offset="30%" stop-color="#000d0b" stop-opacity="0"/>
  </linearGradient>
  <rect width="1440" height="900" fill="url(#leftVig)"/>

  <!-- Top vignette -->
  <linearGradient id="topVig" x1="0" y1="0" x2="0" y2="1">
    <stop offset="0%"  stop-color="#000d0b" stop-opacity="0.7"/>
    <stop offset="25%" stop-color="#000d0b" stop-opacity="0"/>
  </linearGradient>
  <rect width="1440" height="900" fill="url(#topVig)"/>
</svg>
